<svg width="448" height="266" viewBox="0 0 448 266" fill="none" xmlns="http://www.w3.org/2000/svg">
<path d="M312.704 121.335C309.202 100.375 290.95 84.4022 268.962 84.4022H179.042C157.062 84.4022 138.815 100.362 135.301 121.31C134.895 123.705 134.686 126.169 134.686 128.68V206.89C134.686 209.401 134.895 211.861 135.301 214.256C138.098 230.945 150.251 244.471 166.197 249.276C170.262 250.503 174.575 251.164 179.042 251.164H268.962C273.429 251.164 277.742 250.503 281.808 249.276C297.757 244.467 309.915 230.933 312.704 214.231C313.105 211.844 313.314 209.393 313.314 206.89V128.68C313.314 126.178 313.105 123.723 312.704 121.335ZM276.572 249.276C274.1 249.715 271.559 249.945 268.962 249.945H179.042C176.445 249.945 173.905 249.715 171.432 249.276C151.242 245.69 135.911 228.077 135.911 206.89V180.93C135.911 107.575 195.478 85.6256 268.962 85.6256C292.782 85.6256 312.093 104.902 312.093 128.68V206.89C254.268 214.615 296.762 245.69 276.572 249.276Z" fill="#3F3D56"/>
<path d="M241.895 143.421L245.355 165.868L296.093 158.961L291.192 132.735L241.895 143.421Z" fill="#009EDD"/>
<path d="M281.716 17.4636H260.738V39.1398H281.716V17.4636Z" fill="#2F2E41"/>
<path d="M262.652 40.3962L267.841 24.8562H277.956L278.487 40.3962H262.652Z" fill="#FFB6B6"/>
<path opacity="0.1" d="M262.652 40.3962L267.841 24.8562H277.956L278.487 40.3962H262.652Z" fill="black"/>
<path d="M268.129 178.818L267.553 238.676L266.976 243.28V249.89L275.625 250.762L276.201 237.524C276.201 237.524 285.426 211.624 283.12 191.48C280.814 171.335 281.967 177.091 281.967 177.091L268.129 178.818Z" fill="#FFB6B6"/>
<path d="M273.62 183.518L252.343 239.485L251.202 243.983L248.794 250.14L240.42 247.812L244.707 235.272C244.707 235.272 245.552 207.796 255.041 189.869C264.531 171.943 261.359 176.885 261.359 176.885L273.62 183.518Z" fill="#FFB6B6"/>
<path d="M262.652 38.6696L247.085 45.5763L257.024 96.8078L255.454 170.338L245.076 192.21C245.076 192.21 243.337 204.718 261.211 196.66C279.084 188.602 299.264 186.3 299.264 186.3L294.363 152.63L290.039 64.2819L290.616 44.7129L277.931 36.6552L262.652 38.6696V38.6696Z" fill="#2F2E41"/>
<path d="M253.982 193.009L236.706 164.141L256.448 96.8077L247.085 45.5763L263.511 38.5563C263.511 38.5563 272.015 46.8227 272.015 53.641C272.015 60.4593 253.982 193.009 253.982 193.009Z" fill="#E6E6E6"/>
<path d="M291.459 187.253L275.778 52.7872C275.58 51.0893 275.87 49.3702 276.615 47.831L281.102 38.5563L298.688 43.5618L291.619 98.5344L310.507 152.63L291.459 187.253H291.459Z" fill="#E6E6E6"/>
<path d="M277.355 249.611C277.355 249.611 266.4 243.28 265.247 246.733C264.093 250.187 263.517 253.064 263.517 253.064C263.517 253.064 260.634 264 269.283 264C277.931 264 277.355 259.026 277.355 259.026V249.611Z" fill="#2F2E41"/>
<path d="M239.228 246.111C239.228 246.111 251.739 244.192 251.555 247.828C251.371 251.463 250.859 254.353 250.859 254.353C250.859 254.353 249.559 265.586 241.503 262.446C233.447 259.305 235.797 254.882 235.797 254.882L239.228 246.111Z" fill="#2F2E41"/>
<path d="M273.573 33.314C281.489 33.314 287.906 26.908 287.906 19.0057C287.906 11.1035 281.489 4.69745 273.573 4.69745C265.657 4.69745 259.239 11.1035 259.239 19.0057C259.239 26.908 265.657 33.314 273.573 33.314Z" fill="#FFB6B6"/>
<path d="M285.025 6.25495C284.357 2.72716 280.73 0.34103 277.146 0.0418153C273.562 -0.257399 270.051 1.09351 266.824 2.67741C264.636 3.7511 262.482 4.96128 260.71 6.63253C258.937 8.30378 257.561 10.487 257.243 12.8998C257.131 13.7535 257.145 14.6454 256.795 15.4324C256.358 16.4154 255.419 17.083 254.853 17.998C253.837 19.6389 254.303 22.0261 255.863 23.1651C253.903 23.9991 251.888 24.8691 250.394 26.3857C248.899 27.9022 248.036 30.2437 248.856 32.2072C249.147 32.9019 249.626 33.51 249.874 34.2207C250.345 35.5704 249.897 37.1038 249.061 38.2645C248.226 39.4253 247.047 40.286 245.889 41.1263C248.866 41.7087 251.903 42.1624 254.924 41.8907C257.945 41.6191 260.976 40.5623 263.164 38.4652C265.351 36.368 266.555 33.133 265.77 30.2086C265.169 27.9683 263.487 26.0053 263.488 23.686C263.489 21.9033 264.493 20.2951 265.463 18.798L271.816 8.9894C272.197 8.40127 272.599 7.79267 273.201 7.43295C274.225 6.82098 275.553 7.0901 276.632 7.59803C277.712 8.10597 278.698 8.83471 279.849 9.14965C282.199 9.79241 284.924 8.31631 285.665 5.99985" fill="#2F2E41"/>
<path d="M276.557 35.3537C275.363 36.5083 273.642 36.8802 272.047 37.3481C270.451 37.816 268.754 38.5518 268.036 40.0489C267.332 41.5168 267.844 43.3801 269.009 44.5181C270.175 45.656 271.868 46.1354 273.498 46.1128C275.128 46.0902 276.717 45.6133 278.25 45.0595C282.442 43.5453 286.412 41.4211 289.997 38.775C287.675 38.1338 286.156 35.4275 286.821 33.1161C287.361 31.2359 289.014 29.9245 290.139 28.3228C292.076 25.565 292.399 21.9298 291.758 18.6231C291.116 15.3164 289.606 12.2511 288.112 9.23138C287.639 8.2768 287.156 7.30607 286.419 6.53636C285.682 5.76667 284.638 5.21524 283.578 5.32551C281.817 5.50851 280.693 7.43774 280.681 9.20459C280.669 10.9714 281.446 12.632 282.034 14.2982C282.641 16.0148 283.063 17.8345 282.9 19.6476C282.764 21.167 282.21 22.647 281.316 23.8838C280.625 24.839 279.745 25.6406 278.994 26.5492C278.413 27.2517 277.898 28.0474 277.745 28.9454C277.468 30.5795 278.428 32.2329 278.165 33.8694C277.886 35.5993 276.063 36.9237 274.328 36.6556" fill="#2F2E41"/>
<path d="M232.72 235.198C259.787 235.198 281.729 213.295 281.729 186.276C281.729 159.257 259.787 137.353 232.72 137.353C205.654 137.353 183.712 159.257 183.712 186.276C183.712 213.295 205.654 235.198 232.72 235.198Z" fill="#009EDD"/>
<path d="M246.404 136.518C245.81 140.758 243.138 143.889 240.435 143.511C237.732 143.134 236.023 139.391 236.617 135.15C236.831 133.453 237.45 131.831 238.42 130.421L241.162 112.489L249.565 113.953L245.969 131.476C246.516 133.098 246.665 134.827 246.404 136.518Z" fill="#FFB6B6"/>
<path d="M253.715 44.713C253.715 44.713 245.067 41.8352 243.913 52.1952C242.76 62.5552 241.607 75.2175 241.607 75.2175C241.607 75.2175 236.418 87.3041 238.724 93.6353C241.031 99.9664 245.067 95.5523 241.031 100.925C236.995 106.298 237.557 123.974 237.557 123.974L250.544 123.322C250.544 123.322 257.751 75.793 257.751 74.6419C257.751 73.4908 253.715 44.7129 253.715 44.7129V44.713Z" fill="#E6E6E6"/>
<path d="M309.931 134.594C310.091 138.872 308.01 142.422 305.283 142.524C302.556 142.625 300.216 139.24 300.055 134.961C299.968 133.252 300.291 131.548 300.999 129.99L300.547 111.855L309.077 111.825L308.617 129.705C309.439 131.207 309.89 132.883 309.931 134.594V134.594Z" fill="#FFB6B6"/>
<path d="M296.616 44.5186C296.616 44.5186 305.315 41.7955 306.283 52.1744C307.25 62.5533 308.177 81.5653 308.177 81.5653C308.177 81.5653 313.149 93.7426 310.729 100.032C308.31 106.321 304.354 101.835 308.293 107.279C312.232 112.723 310.818 128.074 310.818 128.074L297.845 127.19C297.845 127.19 292.025 81.8528 292.045 80.7019C292.066 79.5509 296.616 44.5186 296.616 44.5186V44.5186Z" fill="#E6E6E6"/>
<path d="M267.559 182.332H260.328C259.203 175.702 255.731 169.699 250.547 165.417C238.616 155.562 220.955 157.246 211.101 169.177C211.067 169.215 211.035 169.254 211.004 169.294C210.217 170.315 210.406 171.78 211.426 172.568C212.447 173.355 213.913 173.166 214.7 172.146C218.981 166.959 225.461 163.659 232.706 163.659C243.798 163.66 253.358 171.464 255.58 182.332H249.203C248.93 182.332 248.666 182.427 248.457 182.602C247.962 183.015 247.895 183.75 248.307 184.246L257.485 195.263C257.53 195.317 257.58 195.367 257.634 195.412C258.129 195.824 258.865 195.758 259.277 195.263L268.455 184.246C268.63 184.036 268.725 183.772 268.726 183.499C268.726 182.855 268.203 182.332 267.559 182.332V182.332Z" fill="white"/>
<path d="M253.985 201.432C252.964 200.645 251.498 200.834 250.711 201.854C247.315 205.966 242.615 208.791 237.391 209.861C224.757 212.447 212.418 204.302 209.831 191.668H216.208C216.853 191.668 217.375 191.145 217.375 190.501C217.374 190.228 217.279 189.964 217.104 189.754L207.926 178.737C207.514 178.242 206.778 178.175 206.283 178.588C206.229 178.633 206.179 178.683 206.134 178.737L196.956 189.754C196.544 190.25 196.611 190.985 197.106 191.398C197.316 191.573 197.58 191.668 197.852 191.668H205.083C206.209 198.298 209.68 204.301 214.864 208.583C226.795 218.438 244.456 216.754 254.31 204.823C254.344 204.785 254.376 204.746 254.407 204.706C255.195 203.685 255.006 202.22 253.985 201.432H253.985V201.432Z" fill="white"/>
<path d="M447.5 264H0.5V265.36H447.5V264Z" fill="#3F3D56"/>
</svg>
